<svg xmlns="http://www.w3.org/2000/svg" viewBox="0 0 459.68 96.83"><defs><style>.cls-1{fill:#fff;}</style></defs><title>Asset 2@0.25x</title><g id="Layer_2" data-name="Layer 2"><g id="Layer_1-2" data-name="Layer 1"><path class="cls-1" d="M24.12,85.15V40.53L82.88,27.46l58.76,13.07V54.18h-4.3L136.42,45,82.88,33.43,29.34,45,25.56,85.15ZM162.82,20.4l2.94.75v33H158v-27L82.88,8.05,7.79,27.2V88.76H158v-19h-6.2V85.15h-1.7l-1.32-15.43h-7.11V85.15H140.2l-1.38-15.43H39V62h126.8V96.52H0V21.15l2.94-.75L82.79,0l80,20.4ZM14,85.15V30.55L82.88,13.79l68.89,16.76V54.18h-4.42l-1.7-18L82.88,21.44,20.11,36.23,15.7,85.15Z"/><path class="cls-1" d="M202.28,22.1h17c0,.41,0,.64,0,.69q0,5.4-.27,8.13a5.57,5.57,0,0,1-4.8,5.34,28.93,28.93,0,0,1-4.31.53q-2.42.14-7.41.14a76.07,76.07,0,0,1-8.92-.36,9.4,9.4,0,0,1-4.14-1.41,4.91,4.91,0,0,1-1.6-1.87,9.64,9.64,0,0,1-.77-3c-.14-1.16-.21-3.45-.21-6.87q0-3.49.18-5.27a12.92,12.92,0,0,1,.7-3.17,5.43,5.43,0,0,1,4.5-3.59,70.4,70.4,0,0,1,11.56-.69q4.62,0,7.31.24a21.51,21.51,0,0,1,4.43.8,4.82,4.82,0,0,1,3.4,4,24,24,0,0,1,.31,4.17h-7.46a6.52,6.52,0,0,0-.12-1.47,1.21,1.21,0,0,0-.45-.64,5.35,5.35,0,0,0-2.62-.58q-1.88-.11-5.45-.11-3.87,0-5.52.19a4.5,4.5,0,0,0-2.27.7,2.86,2.86,0,0,0-.83,1.71,26.44,26.44,0,0,0-.21,4.06,32.18,32.18,0,0,0,.21,4.51,3,3,0,0,0,.83,1.8,2.87,2.87,0,0,0,1.58.61q1,.11,6.17.18t6.18-.1a5.46,5.46,0,0,0,1.75-.34,1.44,1.44,0,0,0,.76-.8,4.56,4.56,0,0,0,.23-1.66c0-.11,0-.35,0-.71h-9.81V22.1Zm21.61,14.45V11.07h18q6.34,0,7.6.14a5.45,5.45,0,0,1,2.42.87,4.46,4.46,0,0,1,1.91,2.42,16.31,16.31,0,0,1,.52,4.84,18.2,18.2,0,0,1-.33,4.08,3.91,3.91,0,0,1-1.25,2.09,6,6,0,0,1-3,1.16,4.7,4.7,0,0,1,3.37,1.4,3.67,3.67,0,0,1,.75,1.76,37.08,37.08,0,0,1,.16,4.35v2.37h-7.35V35.19a20.3,20.3,0,0,0-.15-3,2.89,2.89,0,0,0-.56-1.4,2,2,0,0,0-1.14-.57,23,23,0,0,0-3-.12h-10.5v6.48Zm7.46-12.85h10.48c1.83,0,2.92-.07,3.27-.1a2,2,0,0,0,.91-.29,1.73,1.73,0,0,0,.68-.94,7,7,0,0,0,.2-1.9,5.77,5.77,0,0,0-.23-1.87,1.54,1.54,0,0,0-.78-.89,2.54,2.54,0,0,0-.94-.22c-.36,0-1.41,0-3.13-.06H231.35v6.27Zm27.49-12.64h27.1v6H266.18v3.68h18.75v5.6H266.18v4.08h19.89v6.13H258.83V11.07Zm57.72,25.48-2.1-4.31H298.28l-2.1,4.31h-8.51l13-25.48h11.58L325,36.55Zm-4.71-9.9L307.13,17h-1.49l-4.71,9.65ZM326,11.07h29.6v6.5H344.72v19h-7.83v-19H326v-6.5Z"/><path class="cls-1" d="M214,71.92l-2.1-4.31H195.71l-2.1,4.31H185.1l13-25.48h11.58l12.8,25.48ZM209.27,62l-4.72-9.65h-1.49L198.36,62Zm15.87-15.59h13.51L245.93,63l7.28-16.54h13.44V71.92H259.3l.18-19.08h-1.22L249,71.92h-6.18l-9.22-19.08h-1.31l.18,19.08h-7.35V46.44Zm46.52,0h27.1v6H279v3.68h18.75v5.6H279V65.8H298.9v6.12H271.67V46.44Zm31.16,25.48V46.44h18q6.34,0,7.6.14a5.43,5.43,0,0,1,2.42.87,4.48,4.48,0,0,1,1.92,2.42,16.32,16.32,0,0,1,.52,4.84,18.25,18.25,0,0,1-.33,4.08,3.91,3.91,0,0,1-1.25,2.09,6,6,0,0,1-3,1.16,4.68,4.68,0,0,1,3.37,1.4,3.67,3.67,0,0,1,.75,1.76,37.62,37.62,0,0,1,.16,4.35v2.37h-7.35V70.56a20.3,20.3,0,0,0-.15-3,2.87,2.87,0,0,0-.56-1.4,2,2,0,0,0-1.14-.57,23,23,0,0,0-3-.12h-10.5v6.48Zm7.46-12.85h10.49c1.83,0,2.92-.07,3.27-.1a1.94,1.94,0,0,0,.91-.29,1.71,1.71,0,0,0,.68-.94,6.92,6.92,0,0,0,.2-1.9,5.77,5.77,0,0,0-.22-1.87,1.52,1.52,0,0,0-.78-.89,2.54,2.54,0,0,0-.94-.22c-.36,0-1.41,0-3.13-.06H310.28v6.27Zm27.23-12.64h7.83V71.92h-7.83V46.44Zm36.11,15.64h7.46c0,1.24.07,2,.07,2.41a10.34,10.34,0,0,1-.84,4.61,5.12,5.12,0,0,1-3.63,2.54,44.05,44.05,0,0,1-9.36.68q-7,0-10-.28A12.32,12.32,0,0,1,352.89,71a4.81,4.81,0,0,1-2-2,9,9,0,0,1-.86-3.38q-.16-1.74-.16-6.28t.16-6.38a10,10,0,0,1,.63-3,5.44,5.44,0,0,1,4.14-3.15q3.12-.72,12.58-.72,4.74,0,6.88.22a10.57,10.57,0,0,1,3.43.84A4.71,4.71,0,0,1,380,49.54a12.86,12.86,0,0,1,.68,4.76c0,.11,0,.53,0,1.27h-7.45a12.3,12.3,0,0,0-.15-1.7,1.42,1.42,0,0,0-.41-.71,4.35,4.35,0,0,0-2.17-.57c-1.16-.12-2.91-.18-5.27-.18a48.38,48.38,0,0,0-4.84.16,3.7,3.7,0,0,0-1.9.62,3.23,3.23,0,0,0-.92,1.89,24.67,24.67,0,0,0-.26,4.22,24.45,24.45,0,0,0,.23,4.08,2.74,2.74,0,0,0,.9,1.71,4,4,0,0,0,2,.67,48.19,48.19,0,0,0,4.85.17c2.85,0,4.76-.05,5.71-.15a3.25,3.25,0,0,0,1.93-.66c.44-.43.67-1.45.7-3Zm38.26,9.84-2.1-4.31H393.61l-2.1,4.31H383l13-25.48h11.58l12.8,25.48ZM407.17,62l-4.72-9.65H401L396.26,62ZM423,46.44h13.07l12.81,19h.77l-.18-19h7.58V71.92h-13l-12.87-19h-.81l.16,19H423V46.44Z"/><path class="cls-1" d="M185.93,96.59V80.37h11.19c2.38,0,3.8,0,4.25.06a4.67,4.67,0,0,1,2.25.57,2.47,2.47,0,0,1,1,1.29,7,7,0,0,1,.3,2.3,5.45,5.45,0,0,1-.46,2.57,2.65,2.65,0,0,1-1.64,1.18,3.9,3.9,0,0,1,1.54.55q1.14.79,1.14,3.35a5.69,5.69,0,0,1-.59,2.93,2.36,2.36,0,0,1-1.09.94,6,6,0,0,1-1.93.4c-.54,0-2.12.07-4.73.08Zm4.52-9.83h6.69a10.37,10.37,0,0,0,2.62-.18c.37-.15.56-.54.56-1.17s-.23-1-.67-1.15a20.46,20.46,0,0,0-2.51-.09h-6.69v2.58Zm0,5.93h6.71c1.39,0,2.22,0,2.47,0a2,2,0,0,0,.65-.13c.41-.17.62-.58.62-1.24s-.24-1.08-.71-1.2c-.16,0-1.18-.07-3-.08h-6.71v2.69ZM221,80.37h4.75v7.45a24.47,24.47,0,0,0,.17,3.25,1.55,1.55,0,0,0,1.18,1.25,17.28,17.28,0,0,0,4,.3,25.75,25.75,0,0,0,3.42-.15,2.22,2.22,0,0,0,1.35-.59,1.83,1.83,0,0,0,.37-.75,9.36,9.36,0,0,0,.16-1.51c0-.72.06-1.32.06-1.79V80.37h4.75v7.45q-.08,3.89-.24,5.09a3.89,3.89,0,0,1-1.87,3,6.3,6.3,0,0,1-2.54.74,53,53,0,0,1-5.4.19q-2.81,0-4.35-.11a16.46,16.46,0,0,1-2.66-.38,3.63,3.63,0,0,1-2.92-3.14,16.27,16.27,0,0,1-.2-1.74q0-.79-.06-3.64V80.37Zm36.32,0h5V96.59h-5V80.37Zm21.14,0h5V92.45h11.08v4.14H278.49V80.37Zm31.12,16.22V80.37h11.24q3,0,3.91,0a12.3,12.3,0,0,1,1.93.26,3.82,3.82,0,0,1,3,2.76,9.22,9.22,0,0,1,.36,1.83c.06.66.09,1.64.09,3s0,2.55-.11,3.29a9.22,9.22,0,0,1-.4,2,3.72,3.72,0,0,1-2.86,2.64,13.78,13.78,0,0,1-2.17.32q-1.15.08-3.77.08Zm4.68-4.14h6.61a20.73,20.73,0,0,0,2.69-.12,2.4,2.4,0,0,0,1.22-.43,1.94,1.94,0,0,0,.55-1.09,12,12,0,0,0,.16-2.26,14,14,0,0,0-.14-2.27,2.48,2.48,0,0,0-.48-1.16,1.87,1.87,0,0,0-1.13-.57,21,21,0,0,0-2.91-.12h-6.56v8ZM346,80.37h5V96.59h-5V80.37Zm21.13,0h8.32l8.16,12.1h.49L384,80.37h4.83V96.59h-8.25l-8.19-12.1h-.51l.1,12.1h-4.83V80.37Zm47.29,7H425.3c0,.26,0,.41,0,.44q0,3.44-.17,5.17a3.54,3.54,0,0,1-3.06,3.4,18.56,18.56,0,0,1-2.75.34q-1.54.09-4.72.09a48.54,48.54,0,0,1-5.68-.23,6,6,0,0,1-2.64-.9,3.12,3.12,0,0,1-1-1.19,6.1,6.1,0,0,1-.49-1.91c-.09-.74-.14-2.19-.14-4.38,0-1.48,0-2.6.11-3.35a8.26,8.26,0,0,1,.45-2,3.46,3.46,0,0,1,2.86-2.29,44.69,44.69,0,0,1,7.36-.44c2,0,3.51.05,4.65.15a13.81,13.81,0,0,1,2.82.51,3.07,3.07,0,0,1,2.16,2.52,15.16,15.16,0,0,1,.2,2.65h-4.75a4.12,4.12,0,0,0-.08-.93.79.79,0,0,0-.29-.41,3.4,3.4,0,0,0-1.67-.37q-1.2-.07-3.47-.07-2.47,0-3.52.12a2.9,2.9,0,0,0-1.44.44,1.85,1.85,0,0,0-.53,1.09,17.16,17.16,0,0,0-.13,2.58,20.86,20.86,0,0,0,.13,2.87,1.89,1.89,0,0,0,.53,1.15,1.84,1.84,0,0,0,1,.39q.63.07,3.93.11t3.94-.07a3.53,3.53,0,0,0,1.12-.22.91.91,0,0,0,.48-.51,2.89,2.89,0,0,0,.14-1.05c0-.07,0-.22,0-.45h-6.24V87.39Zm26.17,3.83h4.59q0,1.2.47,1.55a1.87,1.87,0,0,0,.88.27c.36,0,1.5,0,3.42.07s3.21,0,3.61,0a2.7,2.7,0,0,0,1-.19c.35-.15.53-.56.53-1.23a1.08,1.08,0,0,0-.37-1,3.25,3.25,0,0,0-1.51-.27q-.88,0-3.72-.14c-1.94-.1-3.2-.15-3.79-.17a10.8,10.8,0,0,1-2.63-.34,2.84,2.84,0,0,1-1.43-.91,5.45,5.45,0,0,1-.88-3.5,5.84,5.84,0,0,1,1-3.87,3.74,3.74,0,0,1,2.35-1.12,53.62,53.62,0,0,1,6.45-.24,39,39,0,0,1,4.83.2,4.69,4.69,0,0,1,2.94,1.24,4.85,4.85,0,0,1,.8,3.14c0,.14,0,.39,0,.76h-4.6a3.6,3.6,0,0,0-.11-.93.74.74,0,0,0-.33-.4,2.57,2.57,0,0,0-1.08-.24q-.77-.06-3.29-.05A19.21,19.21,0,0,0,446,84c-.44.13-.66.5-.66,1.09a1,1,0,0,0,.66,1,43.36,43.36,0,0,0,5,.3q3.77.12,5,.28a5.25,5.25,0,0,1,2,.61,2.91,2.91,0,0,1,1.21,1.47,7.9,7.9,0,0,1,.35,2.68,7.54,7.54,0,0,1-.59,3.41,2.84,2.84,0,0,1-1.24,1.23,6.58,6.58,0,0,1-2.23.55q-1.54.14-5.74.14a50.81,50.81,0,0,1-5.19-.19,6.71,6.71,0,0,1-2.52-.68,2.79,2.79,0,0,1-1.21-1.38,7.62,7.62,0,0,1-.33-2.6v-.76Z"/></g></g></svg>